Coordinates
version=1
nRows=54
nColumns=12
inDegrees=yes

Units are S.I. units (second, meters, Newtons, ...)
Angles are in degrees

endheader
time	SC_y	SC_z	SC_x	AC_y	AC_z	AC_x	GH_y	GH_z	GH_yy	EL_x	PS_y
       0.0              -42.73          29.22          44.34          34.82         -18.04         -6.435         -96.65          77.93         -23.26          47.74          116.9
   0.02077              -42.73          29.22          44.34          34.82         -18.04         -6.436         -96.65          77.93         -23.24          47.75          116.9
   0.04155              -42.73          29.22          44.34          34.83         -18.04         -6.437         -96.65          77.93         -23.21          47.76          116.9
   0.06232              -42.73          29.22          44.34          34.83         -18.04         -6.439         -96.65          77.93         -23.19          47.77          116.9
   0.08309              -42.73          29.22          44.34          34.83         -18.04          -6.44         -96.65          77.93         -23.16          47.79          116.9
    0.1039              -42.74          29.22          44.34          34.84         -18.04         -6.441         -96.65          77.93         -23.13           47.8          116.9
    0.1246              -42.74          29.22          44.33          34.84         -18.03         -6.443         -96.65          77.93          -23.1          47.82          116.8
    0.1454              -42.74          29.22          44.33          34.84         -18.03         -6.444         -96.65          77.92         -23.06          47.83          116.8
    0.1662              -42.74          29.22          44.33          34.85         -18.03         -6.446         -96.65          77.92         -23.03          47.85          116.8
     0.187              -42.75          29.22          44.33          34.85         -18.03         -6.448         -96.65          77.92         -22.99          47.87          116.8
    0.2077              -42.75          29.21          44.33          34.86         -18.03          -6.45         -96.66          77.92         -22.95          47.89          116.8
    0.2285              -42.75          29.21          44.33          34.86         -18.02         -6.452         -96.66          77.92          -22.9          47.92          116.8
    0.2493              -42.76          29.21          44.33          34.87         -18.02         -6.454         -96.66          77.92         -22.86          47.94          116.7
    0.2701              -42.76          29.21          44.32          34.87         -18.02         -6.457         -96.66          77.92          -22.8          47.97          116.7
    0.2908              -42.77          29.21          44.32          34.88         -18.01         -6.459         -96.66          77.91         -22.75          47.99          116.7
    0.3116              -42.77          29.21          44.32          34.88         -18.01         -6.462         -96.66          77.91         -22.69          48.02          116.7
    0.3324              -42.78          29.21          44.32          34.89         -18.01         -6.465         -96.66          77.91         -22.62          48.06          116.6
    0.3531              -42.78          29.21          44.31           34.9          -18.0         -6.469         -96.66          77.91         -22.55          48.09          116.6
    0.3739              -42.79          29.21          44.31          34.91          -18.0         -6.472         -96.66           77.9         -22.47          48.13          116.6
    0.3947              -42.79           29.2          44.31          34.92         -17.99         -6.476         -96.66           77.9         -22.38          48.18          116.5
    0.4155               -42.8           29.2           44.3          34.93         -17.99         -6.481         -96.66           77.9         -22.29          48.23          116.5
    0.4362              -42.81           29.2           44.3          34.94         -17.98         -6.486         -96.66          77.89         -22.19          48.28          116.4
     0.457              -42.82           29.2          44.29          34.95         -17.97         -6.491         -96.66          77.89         -22.07          48.34          116.4
    0.4778              -42.83           29.2          44.29          34.96         -17.97         -6.497         -96.66          77.89         -21.94           48.4          116.3
    0.4986              -42.84          29.19          44.28          34.98         -17.96         -6.504         -96.67          77.88          -21.8          48.47          116.3
    0.5193              -42.85          29.19          44.28           35.0         -17.95         -6.511         -96.67          77.88         -21.64          48.55          116.2
    0.5401              -42.87          29.19          44.27          35.02         -17.94          -6.52         -96.67          77.87         -21.47          48.64          116.1
    0.5609              -42.88          29.18          44.26          35.04         -17.92         -6.529         -96.67          77.86         -21.27          48.74          116.0
    0.5817               -42.9          29.18          44.25          35.06         -17.91          -6.54         -96.67          77.86         -21.04          48.86          115.9
    0.6024              -42.92          29.17          44.24          35.09          -17.9         -6.552         -96.68          77.85         -20.79          48.98          115.8
    0.6232              -42.94          29.17          44.23          35.12         -17.88         -6.566         -96.68          77.84          -20.5          49.13          115.7
     0.644              -42.97          29.16          44.22          35.16         -17.86         -6.581         -96.68          77.83         -20.16           49.3          115.5
    0.6647               -43.0          29.15           44.2           35.2         -17.83           -6.6         -96.68          77.81         -19.78           49.5          115.4
    0.6855              -43.03          29.15          44.19          35.25         -17.81         -6.621         -96.69           77.8         -19.33          49.72          115.2
    0.7063              -43.07          29.14          44.17           35.3         -17.78         -6.646         -96.69          77.78          -18.8          49.99          115.0
    0.7271              -43.12          29.12          44.14          35.37         -17.74         -6.675          -96.7          77.76         -18.18           50.3          114.7
    0.7478              -43.18          29.11          44.11          35.45         -17.69          -6.71         -96.71          77.73         -17.45          50.67          114.4
    0.7686              -43.24          29.09          44.08          35.54         -17.64         -6.751         -96.71           77.7         -16.57          51.12          114.0
    0.7894              -43.33          29.07          44.04          35.66         -17.58         -6.802         -96.72          77.67          -15.5          51.65          113.5
    0.8102              -43.43          29.05          43.98           35.8          -17.5         -6.863         -96.74          77.62          -14.2          52.31          112.9
    0.8309              -43.55          29.02          43.92          35.97          -17.4         -6.939         -96.75          77.57         -12.59          53.12          112.2
    0.8517              -43.71          28.98          43.84          36.19         -17.28         -7.034         -96.77           77.5         -10.58          54.14          111.3
    0.8725               -43.9          28.93          43.74          36.46         -17.13         -7.153         -96.79          77.41         -8.058          55.41          110.2
    0.8933              -44.15          28.87          43.62          36.81         -16.93         -7.305         -96.82          77.31         -4.847          57.03          108.8
     0.914              -44.47           28.8          43.45          37.25         -16.69         -7.499         -96.86          77.17        -0.7367          59.11          107.0
    0.9348              -44.88           28.7          43.25          37.82         -16.37         -7.748         -96.91          76.99          4.538          61.77          104.7
    0.9556               -45.4          28.57          42.98          38.55         -15.96         -8.066         -96.97          76.76          11.28          65.18          101.7
    0.9764              -46.05          28.41          42.65          39.46         -15.45         -8.466         -97.05          76.47          19.75          69.45          98.01
    0.9971              -46.85          28.22          42.24          40.57         -14.83         -8.954         -97.14          76.12          30.07          74.67          93.47
     1.018              -47.78          27.99          41.77          41.86         -14.11         -9.519         -97.25          75.71          42.04          80.71          88.22
     1.039              -48.78          27.75          41.26          43.26         -13.33         -10.13         -97.37          75.27          54.99          87.25          82.52
     1.059              -49.78           27.5          40.75          44.66         -12.55         -10.74         -97.49          74.83          67.95           93.8          76.83
      1.08              -50.71          27.28          40.28          45.95         -11.83         -11.31          -97.6          74.43          79.92          99.84          71.57
     1.101               -51.5          27.08          39.87          47.06          -11.2          -11.8         -97.69          74.08          90.24          105.1          67.03
